<?xml version="1.0" standalone="no"?>
<!DOCTYPE svg PUBLIC "-//W3C//DTD SVG 20010904//EN"
 "http://www.w3.org/TR/2001/REC-SVG-20010904/DTD/svg10.dtd">
<svg version="1.0" xmlns="http://www.w3.org/2000/svg"
 width="964.000000pt" height="964.000000pt" viewBox="0 0 964.000000 964.000000"
 preserveAspectRatio="xMidYMid meet">
<metadata>
Created by potrace 1.11, written by Peter Selinger 2001-2013
</metadata>
<g transform="translate(0.000000,964.000000) scale(0.100000,-0.100000)"
fill="#000000" stroke="none">
<path d="M4780 8009 c-41 -10 -94 -27 -130 -42 -14 -6 -29 -11 -35 -12 -76
-18 -381 -203 -596 -363 -24 -18 -55 -40 -68 -50 -13 -9 -29 -22 -35 -27 -6
-6 -31 -26 -56 -45 -25 -19 -54 -42 -65 -51 -11 -9 -90 -72 -175 -140 -85 -68
-164 -131 -175 -141 -43 -35 -203 -164 -235 -188 -18 -14 -41 -32 -50 -40 -42
-35 -57 -47 -95 -75 -22 -16 -56 -42 -75 -58 -44 -35 -34 -27 -170 -124 -130
-91 -263 -178 -330 -214 -25 -13 -47 -26 -50 -29 -3 -3 -30 -18 -60 -34 -183
-96 -386 -278 -481 -430 -41 -66 -87 -210 -104 -326 -22 -154 -22 -476 0 -589
2 -12 6 -42 9 -66 3 -23 10 -62 15 -86 5 -24 12 -55 15 -69 18 -82 26 -114 50
-195 14 -49 31 -98 36 -107 6 -10 10 -26 10 -36 0 -10 3 -22 8 -26 4 -4 7 -11
8 -14 1 -8 19 -55 33 -87 5 -11 22 -49 38 -85 44 -103 154 -311 173 -330 3 -3
14 -21 24 -40 30 -53 130 -193 183 -257 10 -12 28 -35 40 -51 38 -49 243 -265
243 -256 0 3 7 -1 15 -10 8 -8 15 -20 15 -27 0 -7 3 -10 6 -6 8 8 65 -44 58
-54 -3 -5 1 -6 9 -3 8 3 21 -3 28 -13 8 -10 27 -26 42 -36 15 -10 25 -22 22
-26 -2 -5 1 -8 8 -7 14 1 56 -26 89 -56 10 -10 22 -18 28 -18 5 0 15 -9 22
-20 7 -11 16 -20 20 -20 7 0 42 -28 95 -77 13 -13 27 -23 31 -23 4 0 15 -8 24
-17 26 -28 46 -43 57 -43 5 0 11 -4 13 -8 2 -4 32 -28 68 -52 36 -25 67 -47
70 -50 5 -6 49 -34 177 -115 34 -22 59 -44 56 -49 -4 -5 -1 -6 5 -2 11 7 32
-3 107 -49 22 -14 47 -28 55 -32 8 -4 17 -9 20 -12 3 -4 32 -20 65 -37 33 -17
121 -63 196 -102 75 -39 139 -69 141 -66 3 2 11 -2 18 -11 7 -8 16 -15 21 -15
5 0 37 -13 71 -30 34 -17 67 -30 75 -30 7 0 13 -4 13 -8 0 -4 20 -14 45 -21
25 -7 45 -16 45 -20 0 -4 20 -13 45 -20 25 -7 43 -16 41 -20 -2 -3 6 -7 17 -7
12 -1 42 -11 67 -22 25 -11 70 -29 100 -40 30 -11 64 -24 75 -28 11 -4 22 -8
25 -9 3 0 30 -9 60 -20 30 -11 58 -20 63 -21 4 -1 9 -3 12 -4 8 -4 17 -7 53
-15 17 -4 32 -12 32 -17 0 -5 4 -7 9 -4 5 3 37 -3 72 -14 34 -11 72 -22 83
-25 12 -2 71 -15 131 -29 165 -37 267 -50 385 -48 100 1 185 18 218 45 6 5 12
6 12 3 0 -4 15 10 34 30 74 81 109 342 110 822 0 207 1 212 21 213 11 0 29 2
40 4 29 6 197 16 355 21 74 3 167 6 205 7 39 2 77 0 85 -4 8 -4 34 -4 58 1 23
4 42 4 42 1 0 -4 21 -6 48 -6 26 0 51 -2 57 -4 5 -3 28 -6 50 -6 41 -2 155
-14 190 -21 11 -2 38 -7 60 -10 22 -3 49 -8 60 -10 11 -2 36 -6 55 -9 19 -3
46 -8 60 -12 31 -8 31 -8 105 -23 33 -7 63 -17 67 -24 5 -7 8 -7 8 3 0 9 4 10
13 3 6 -5 32 -13 57 -18 46 -8 55 -10 68 -14 4 -1 12 -3 17 -4 6 -1 17 -5 25
-8 8 -3 44 -14 80 -23 59 -14 159 -41 185 -48 6 -2 26 -7 45 -11 19 -5 40 -11
45 -14 6 -4 19 -8 30 -9 11 -2 22 -8 23 -13 2 -6 7 -8 12 -5 5 3 21 0 37 -6
15 -6 42 -13 58 -16 17 -3 32 -8 35 -12 3 -5 12 -8 20 -8 15 0 198 -56 235
-72 30 -13 236 -79 265 -85 14 -3 36 -7 50 -10 147 -31 234 -29 312 6 58 27
138 93 138 115 0 7 6 16 14 20 8 4 15 10 15 13 0 3 5 19 11 35 32 80 53 205
52 300 -1 51 -12 179 -17 205 -10 47 -17 85 -19 105 -2 11 -6 29 -9 40 -3 11
-8 31 -11 45 -3 14 -12 52 -21 85 -14 56 -23 82 -41 130 -4 11 -8 23 -9 28 -2
4 -4 9 -5 12 -1 3 -3 8 -4 13 -2 7 -7 19 -63 146 -15 34 -33 68 -40 77 -7 8
-13 20 -13 25 0 35 -286 453 -372 544 -13 14 -31 36 -40 49 -62 89 -463 491
-728 731 -46 41 -88 80 -94 85 -6 6 -58 53 -116 105 -58 52 -110 99 -116 105
-6 5 -57 53 -114 105 -185 170 -251 233 -394 376 -137 136 -300 307 -510 535
-85 92 -277 298 -376 403 -137 145 -429 434 -531 525 -52 47 -98 89 -104 95
-5 6 -30 27 -55 47 -25 20 -56 46 -70 58 -14 11 -29 24 -35 28 -107 84 -221
163 -234 163 -5 0 -11 4 -13 9 -4 10 -208 122 -208 114 0 -3 -10 1 -22 9 -20
12 -73 31 -127 44 -9 2 -33 8 -54 13 -46 11 -170 11 -217 0z"/>
<path d="M2110 3679 c0 -5 5 -7 10 -4 6 3 10 8 10 11 0 2 -4 4 -10 4 -5 0 -10
-5 -10 -11z"/>
<path d="M1386 3602 c-3 -5 1 -9 9 -9 8 0 12 4 9 9 -3 4 -7 8 -9 8 -2 0 -6 -4
-9 -8z"/>
<path d="M1155 3520 c-3 -5 -1 -10 4 -10 6 0 11 5 11 10 0 6 -2 10 -4 10 -3 0
-8 -4 -11 -10z"/>
<path d="M1786 3518 c3 -5 10 -6 15 -3 13 9 11 12 -6 12 -8 0 -12 -4 -9 -9z"/>
<path d="M1795 3451 c-3 -5 -2 -12 3 -15 5 -3 9 1 9 9 0 17 -3 19 -12 6z"/>
<path d="M835 3440 c3 -5 8 -10 11 -10 2 0 4 5 4 10 0 6 -5 10 -11 10 -5 0 -7
-4 -4 -10z"/>
<path d="M1946 3438 c3 -5 10 -6 15 -3 13 9 11 12 -6 12 -8 0 -12 -4 -9 -9z"/>
<path d="M1955 3371 c-3 -5 -2 -12 3 -15 5 -3 9 1 9 9 0 17 -3 19 -12 6z"/>
<path d="M1310 3280 c0 -5 5 -10 11 -10 5 0 7 5 4 10 -3 6 -8 10 -11 10 -2 0
-4 -4 -4 -10z"/>
<path d="M2506 3278 c3 -5 10 -6 15 -3 13 9 11 12 -6 12 -8 0 -12 -4 -9 -9z"/>
<path d="M550 3240 c0 -5 5 -10 10 -10 6 0 10 5 10 10 0 6 -4 10 -10 10 -5 0
-10 -4 -10 -10z"/>
<path d="M755 3200 c-3 -5 -1 -10 4 -10 6 0 11 5 11 10 0 6 -2 10 -4 10 -3 0
-8 -4 -11 -10z"/>
<path d="M2430 3199 c0 -5 5 -7 10 -4 6 3 10 8 10 11 0 2 -4 4 -10 4 -5 0 -10
-5 -10 -11z"/>
<path d="M1075 3120 c-3 -5 -1 -10 4 -10 6 0 11 5 11 10 0 6 -2 10 -4 10 -3 0
-8 -4 -11 -10z"/>
<path d="M1955 3120 c-3 -5 -1 -10 4 -10 6 0 11 5 11 10 0 6 -2 10 -4 10 -3 0
-8 -4 -11 -10z"/>
<path d="M1795 3040 c-3 -5 -1 -10 4 -10 6 0 11 5 11 10 0 6 -2 10 -4 10 -3 0
-8 -4 -11 -10z"/>
<path d="M2596 3038 c3 -5 10 -6 15 -3 13 9 11 12 -6 12 -8 0 -12 -4 -9 -9z"/>
<path d="M430 2960 c0 -5 5 -10 11 -10 5 0 7 5 4 10 -3 6 -8 10 -11 10 -2 0
-4 -4 -4 -10z"/>
<path d="M2596 2962 c-3 -5 1 -9 9 -9 8 0 12 4 9 9 -3 4 -7 8 -9 8 -2 0 -6 -4
-9 -8z"/>
<path d="M1315 2880 c3 -5 8 -10 11 -10 2 0 4 5 4 10 0 6 -5 10 -11 10 -5 0
-7 -4 -4 -10z"/>
<path d="M1710 2880 c0 -5 5 -10 11 -10 5 0 7 5 4 10 -3 6 -8 10 -11 10 -2 0
-4 -4 -4 -10z"/>
<path d="M2115 2881 c-3 -5 -2 -12 3 -15 5 -3 9 1 9 9 0 17 -3 19 -12 6z"/>
<path d="M2506 2878 c3 -5 10 -6 15 -3 13 9 11 12 -6 12 -8 0 -12 -4 -9 -9z"/>
<path d="M515 2800 c3 -5 8 -10 11 -10 2 0 4 5 4 10 0 6 -5 10 -11 10 -5 0 -7
-4 -4 -10z"/>
<path d="M6675 2801 c-3 -5 -2 -12 3 -15 5 -3 9 1 9 9 0 17 -3 19 -12 6z"/>
<path d="M1075 2720 c3 -5 8 -10 11 -10 2 0 4 5 4 10 0 6 -5 10 -11 10 -5 0
-7 -4 -4 -10z"/>
<path d="M7199 2698 c-5 -18 -6 -38 -1 -34 7 8 12 36 6 36 -2 0 -4 -1 -5 -2z"/>
<path d="M906 2638 c3 -5 10 -6 15 -3 13 9 11 12 -6 12 -8 0 -12 -4 -9 -9z"/>
<path d="M2596 2638 c3 -5 10 -6 15 -3 13 9 11 12 -6 12 -8 0 -12 -4 -9 -9z"/>
<path d="M2675 2641 c-3 -5 -2 -12 3 -15 5 -3 9 1 9 9 0 17 -3 19 -12 6z"/>
<path d="M830 2560 c0 -5 5 -10 11 -10 5 0 7 5 4 10 -3 6 -8 10 -11 10 -2 0
-4 -4 -4 -10z"/>
<path d="M2746 2562 c-3 -5 1 -9 9 -9 8 0 12 4 9 9 -3 4 -7 8 -9 8 -2 0 -6 -4
-9 -8z"/>
<path d="M3393 2555 c0 -8 4 -12 9 -9 5 3 6 10 3 15 -9 13 -12 11 -12 -6z"/>
<path d="M8106 2558 c3 -5 10 -6 15 -3 13 9 11 12 -6 12 -8 0 -12 -4 -9 -9z"/>
<path d="M3076 2478 c3 -5 10 -6 15 -3 13 9 11 12 -6 12 -8 0 -12 -4 -9 -9z"/>
<path d="M9473 2475 c0 -8 4 -12 9 -9 5 3 6 10 3 15 -9 13 -12 11 -12 -6z"/>
<path d="M2433 2405 c0 -8 4 -12 9 -9 5 3 6 10 3 15 -9 13 -12 11 -12 -6z"/>
<path d="M1386 2402 c-3 -5 1 -9 9 -9 8 0 12 4 9 9 -3 4 -7 8 -9 8 -2 0 -6 -4
-9 -8z"/>
<path d="M1710 2400 c0 -5 5 -10 11 -10 5 0 7 5 4 10 -3 6 -8 10 -11 10 -2 0
-4 -4 -4 -10z"/>
<path d="M2036 2402 c-3 -5 1 -9 9 -9 8 0 12 4 9 9 -3 4 -7 8 -9 8 -2 0 -6 -4
-9 -8z"/>
<path d="M2506 2402 c-3 -5 1 -9 9 -9 8 0 12 4 9 9 -3 4 -7 8 -9 8 -2 0 -6 -4
-9 -8z"/>
<path d="M3716 2318 c3 -5 10 -6 15 -3 13 9 11 12 -6 12 -8 0 -12 -4 -9 -9z"/>
<path d="M2675 2251 c-3 -5 -2 -12 3 -15 5 -3 9 1 9 9 0 17 -3 19 -12 6z"/>
<path d="M2996 2158 c3 -5 10 -6 15 -3 13 9 11 12 -6 12 -8 0 -12 -4 -9 -9z"/>
<path d="M3393 2155 c0 -8 4 -12 9 -9 5 3 6 10 3 15 -9 13 -12 11 -12 -6z"/>
<path d="M3796 1998 c3 -5 10 -6 15 -3 13 9 11 12 -6 12 -8 0 -12 -4 -9 -9z"/>
<path d="M4186 2002 c-3 -5 1 -9 9 -9 8 0 12 4 9 9 -3 4 -7 8 -9 8 -2 0 -6 -4
-9 -8z"/>
<path d="M4915 1931 c-3 -5 -2 -12 3 -15 5 -3 9 1 9 9 0 17 -3 19 -12 6z"/>
<path d="M3395 1920 c-3 -5 -1 -10 4 -10 6 0 11 5 11 10 0 6 -2 10 -4 10 -3 0
-8 -4 -11 -10z"/>
<path d="M4595 1851 c-3 -5 -2 -12 3 -15 5 -3 9 1 9 9 0 17 -3 19 -12 6z"/>
<path d="M4195 1841 c-3 -5 -2 -12 3 -15 5 -3 9 1 9 9 0 17 -3 19 -12 6z"/>
<path d="M5790 1760 c0 -5 5 -10 11 -10 5 0 7 5 4 10 -3 6 -8 10 -11 10 -2 0
-4 -4 -4 -10z"/>
<path d="M4675 1680 c-3 -5 -1 -10 4 -10 6 0 11 5 11 10 0 6 -2 10 -4 10 -3 0
-8 -4 -11 -10z"/>
</g>
</svg>
