<svg id="Layer_1" data-name="Layer 1" xmlns="http://www.w3.org/2000/svg" viewBox="0 0 222.64 154.86"><defs><style>.cls-1{fill:#f7b854;}.cls-2{fill:#dd9950;}.cls-3{fill:#f0f0f0;opacity:0.25;}.cls-4{fill:#fcfcfc;}</style></defs><title>fufortune_cookie_</title><path class="cls-1" d="M742.26,495.2A85.44,85.44,0,0,1,773,493.47c16.35,2.23,39.15,15.86,47.33,13.63s8.36-13,5.19-24.53c-7-25.66-35.66-44.54-55.49-64.92s-45.84-53.39-62.44-49.18-39,29.87-59.57,40.67c-19.12,10-15.84,28.58-12.34,39.59,5.89,18.55,12.44,28.88,28.3,43.25,21,19.06,71.36,38.65,76.35,27.93C742.94,514.28,742.26,495.2,742.26,495.2Z" transform="translate(-604.77 -368.1)"/><path class="cls-2" d="M633,437.35c.37,15.19,8.48,39.43,31,54.63,29.72,20.09,59.4,30.63,69.26,25.7,18.58-9.29-34.1-17.17-54.15-26.57-15.95-7.47-31.14-28-38.1-44-7.88-18.15-3.26-29.46-3.26-29.46S632.59,421,633,437.35Z" transform="translate(-604.77 -368.1)"/><path class="cls-2" d="M714.76,377.76c-5.86-4.18-3.29,18.7,11.45,60s16,57.46,16,57.46.17-.3,8.29-.67,14.32-.46,24.15,1.32c12.37,2.24,30,8,30,8S800,494.25,773,474.94c-20.64-14.79-35.86-22.79-46.44-49.62-14.72-37.35-.17-40.16-5.28-40.66-3-.3-2.49,7.6-4.29,7.48C712.8,391.85,718,380.11,714.76,377.76Z" transform="translate(-604.77 -368.1)"/><path class="cls-3" d="M703.61,385.09c-3-20.45,13.23,47,20.76,74.54,5.23,19.12,13.22,41.33-5.95,34.39s-54.69-19.36-38.84-18.86,19.89-8.18,25.08-23.52C710,435.88,707,408.42,703.61,385.09Z" transform="translate(-604.77 -368.1)"/><path class="cls-3" d="M738.17,390.6c-17.5-19,21.75,31.89,32.24,45.82,17.11,22.73,22,35.52,27.55,37.69,14.88,5.84,6.5-11.42-5.65-24.92C778.15,433.45,757.64,411.8,738.17,390.6Z" transform="translate(-604.77 -368.1)"/><path class="cls-4" d="M695.65,497a73.57,73.57,0,0,1-22.72-10.12,89.84,89.84,0,0,1-19.07-18.31s-3.66,2-9.78-.24c-12.78-4.67-21.31-19.18-21.31-19.18l-18,30.83s18,14.28,48.63,16.88S695.65,497,695.65,497Z" transform="translate(-604.77 -368.1)"/><path class="cls-2" d="M770,417.65c19.82,20.38,48.44,39.26,55.49,64.92,3.44,12.52,1,18.3,1,18.3s-1.66-10.56-4.86-18.49c-4.75-11.74-9.33-17.92-21.27-32.08C788.79,436.5,770,417.65,770,417.65Z" transform="translate(-604.77 -368.1)"/></svg>